# xmcd
#
# Track frame offsets: 
#        150
#        19804
#        36648
#        53554
#
# Disc length: 963 seconds
#
# Revision: 0
# Processed by: cddbd v1.5.2PL0 Copyright (c) Steve Scherf et al.
# Submitted via: ExactAudioCopy v0.90b4
#
DISCID=2e03c104
DTITLE=The Sara Brown Band - Lay Me Down Right
DYEAR=2010
DGENRE=
TTITLE0=Lay Me Down Right
TTITLE1=Preacher Man
TTITLE2=Pursuit
TTITLE3=The One That Got Away
EXTD=
EXTT0=
EXTT1=
EXTT2=
EXTT3=
PLAYORDER=
